<svg id="svg2" xmlns="http://www.w3.org/2000/svg" viewBox="0 0 600 600"><defs><style>.cls-1{fill:#505050;}.cls-2{fill:#fff;}.cls-3{fill:#6f6f6f;}</style></defs><title>bmw_logo</title><g id="BMW-logo-grey-fallback-53px"><g id="BMW-logo"><g id="BMW-logo-fallback"><g id="BMW_Grey-Colour_RGB-2" data-name="BMW Grey-Colour RGB-2"><g id="BMW_Grey-Colour_RGB" data-name="BMW Grey-Colour RGB"><g id="g3375"><g id="g3381"><g id="g3355"><path id="path21" class="cls-1" d="M-221.22,227A177.7,177.7,0,0,1-399,404.78V227ZM-399,49.22V227H-576.78A177.7,177.7,0,0,1-399,49.22Z" transform="translate(699 73)"/></g><path id="path21-3" class="cls-2" d="M-399,49.22A177.7,177.7,0,0,1-221.22,227H-399V49.22ZM-576.78,227H-399V404.78A177.7,177.7,0,0,1-576.78,227Z" transform="translate(699 73)"/></g></g><g id="g3393"><path id="path14" class="cls-3" d="M-399,49.22V59h0c92.64,0,168,75.37,168,168h9.75A177.79,177.79,0,0,0-399,49.22h0M-399,395c-92.64,0-168-75.37-168-168h-9.75A177.79,177.79,0,0,0-399,404.78M-399-73C-564.68-73-699,61.32-699,227s134.32,300,300,300S-99,392.68-99,227-233.32-73-399-73Zm280.49,300c0,154.9-125.57,280.49-280.49,280.49S-679.49,381.9-679.49,227-553.9-53.49-399-53.49-118.51,72.1-118.51,227Z" transform="translate(699 73)"/></g><g id="g3386"><g id="Group"><path id="B_22d" class="cls-3" d="M-527.2,82.27c9.58-10,15-21.61,5.42-32.67-5.21-6-14-7.32-21.23-4.36l-.72.28.23-.63c1.07-2.85,1.76-12-6-18.23A18.12,18.12,0,0,0-563,23c-9,.91-15.93,7-34.79,27.89-5.69,6.3-14,16.24-18.94,22.68l51.79,48.8C-547.73,103.45-540.74,96.43-527.2,82.27Zm-67.59-11.93c10.44-12.67,21.52-24.17,26.54-28.72a13.72,13.72,0,0,1,5.41-3.43,6.43,6.43,0,0,1,7.71,4.93c.79,3.49-1.41,6.79-3.86,9.52-5.52,6.18-25.75,27.2-25.75,27.2Zm20.29,19.11s19.7-20.69,26.13-27.3c2.56-2.63,4.2-4.22,6-5.08a6.8,6.8,0,0,1,7,.14,6.09,6.09,0,0,1,2.64,6.44c-.65,3-3.08,5.78-5.09,7.93L-564,99.34Zm181.42-65.37,16.58-36.89,1.06-3.27-.3,3.41,1.75,49.3c5.81.54,11.82,1.35,17.74,2.33l-2.69-73c-8.29-.91-16.53-1.55-24.78-1.9L-400.06,4.31l-.58,3-.58-3L-417.54-36c-8.25.35-16.49,1-24.78,1.9L-445,39c5.92-1,11.93-1.77,17.74-2.33l1.75-49.3-.3-3.41,1.06,3.27,16.58,36.89Zm137.72,76.32c4.07,4.35,9.94,11.35,13.24,15.6l60.69-38.26c-3-3.94-7.86-9.92-11.48-14.14l-38.43,25.24L-234,91.08l2-2.84,17-33.64-12-11.91-33.89,16.85-2.85,1.94,2.27-2.6,25.43-38.16c-4.48-3.78-8.78-7.24-14.26-11.44L-288.86,69.5c4.88,3.73,11.31,9.2,15.42,12.93l36.27-18.69,2.32-1.7-1.71,2.31-18.8,36.05Z" transform="translate(699 73)"/></g></g></g></g></g></g></g></svg>